<mxfile host="app.diagrams.net" modified="2023-08-24T05:03:42.710Z" agent="Mozilla/5.0 (Windows NT 10.0; Win64; x64) AppleWebKit/537.36 (KHTML, like Gecko) Chrome/116.0.0.0 Safari/537.36" etag="_q-e5vnDGVQBGUMDcMsD" version="21.6.9" type="device">
  <diagram name="Página-1" id="ffKS7ex8sViyQjOO3r56">
    <mxGraphModel dx="1687" dy="929" grid="1" gridSize="10" guides="1" tooltips="1" connect="1" arrows="1" fold="1" page="1" pageScale="1" pageWidth="850" pageHeight="1100" math="0" shadow="0">
      <root>
        <mxCell id="0" />
        <mxCell id="1" parent="0" />
        <mxCell id="0s5SCzG6MqVW5vl6Giam-3" value="" style="edgeStyle=orthogonalEdgeStyle;rounded=0;orthogonalLoop=1;jettySize=auto;html=1;" edge="1" parent="1" source="0s5SCzG6MqVW5vl6Giam-1" target="0s5SCzG6MqVW5vl6Giam-2">
          <mxGeometry relative="1" as="geometry" />
        </mxCell>
        <mxCell id="0s5SCzG6MqVW5vl6Giam-1" value="Inicio" style="ellipse;whiteSpace=wrap;html=1;" vertex="1" parent="1">
          <mxGeometry x="340" y="20" width="120" height="80" as="geometry" />
        </mxCell>
        <mxCell id="0s5SCzG6MqVW5vl6Giam-7" value="" style="edgeStyle=orthogonalEdgeStyle;rounded=0;orthogonalLoop=1;jettySize=auto;html=1;fontFamily=Helvetica;fontSize=12;fontColor=default;" edge="1" parent="1" source="0s5SCzG6MqVW5vl6Giam-2" target="0s5SCzG6MqVW5vl6Giam-6">
          <mxGeometry relative="1" as="geometry" />
        </mxCell>
        <mxCell id="0s5SCzG6MqVW5vl6Giam-2" value="&lt;br&gt;&lt;div style=&quot;color: rgb(204, 204, 204); background-color: rgb(31, 31, 31); font-family: Consolas, &amp;quot;Courier New&amp;quot;, monospace; font-weight: normal; font-size: 14px; line-height: 19px;&quot;&gt;&lt;div&gt;&lt;/div&gt;&lt;/div&gt;&lt;font face=&quot;Consolas, Courier New, monospace&quot; color=&quot;#ce9178&quot;&gt;introduce dos números que quieras sumar/restar/multiplicar/dividir&lt;/font&gt;&lt;br&gt;" style="whiteSpace=wrap;html=1;" vertex="1" parent="1">
          <mxGeometry x="195" y="120" width="410" height="60" as="geometry" />
        </mxCell>
        <mxCell id="0s5SCzG6MqVW5vl6Giam-9" value="" style="edgeStyle=orthogonalEdgeStyle;rounded=0;orthogonalLoop=1;jettySize=auto;html=1;fontFamily=Helvetica;fontSize=12;fontColor=default;" edge="1" parent="1" source="0s5SCzG6MqVW5vl6Giam-6" target="0s5SCzG6MqVW5vl6Giam-8">
          <mxGeometry relative="1" as="geometry" />
        </mxCell>
        <mxCell id="0s5SCzG6MqVW5vl6Giam-6" value="&lt;br&gt;&lt;span style=&quot;font-family: Consolas, &amp;quot;Courier New&amp;quot;, monospace; font-size: 14px; font-style: normal; font-variant-ligatures: normal; font-variant-caps: normal; font-weight: 400; letter-spacing: normal; orphans: 2; text-align: center; text-indent: 0px; text-transform: none; widows: 2; word-spacing: 0px; -webkit-text-stroke-width: 0px; text-decoration-thickness: initial; text-decoration-style: initial; text-decoration-color: initial; float: none; display: inline !important;&quot;&gt;introduce el primer número:&lt;/span&gt;&lt;br&gt;" style="whiteSpace=wrap;html=1;" vertex="1" parent="1">
          <mxGeometry x="340" y="200" width="120" height="60" as="geometry" />
        </mxCell>
        <mxCell id="0s5SCzG6MqVW5vl6Giam-11" style="edgeStyle=orthogonalEdgeStyle;rounded=0;orthogonalLoop=1;jettySize=auto;html=1;fontFamily=Helvetica;fontSize=12;fontColor=default;" edge="1" parent="1" source="0s5SCzG6MqVW5vl6Giam-8" target="0s5SCzG6MqVW5vl6Giam-10">
          <mxGeometry relative="1" as="geometry" />
        </mxCell>
        <mxCell id="0s5SCzG6MqVW5vl6Giam-8" value="&lt;div style=&quot;font-family: Consolas, &amp;quot;Courier New&amp;quot;, monospace; font-size: 14px; line-height: 19px;&quot;&gt;num1&lt;/div&gt;" style="shape=document;whiteSpace=wrap;html=1;boundedLbl=1;" vertex="1" parent="1">
          <mxGeometry x="350" y="280" width="100" height="50" as="geometry" />
        </mxCell>
        <mxCell id="0s5SCzG6MqVW5vl6Giam-13" style="edgeStyle=orthogonalEdgeStyle;rounded=0;orthogonalLoop=1;jettySize=auto;html=1;fontFamily=Helvetica;fontSize=12;fontColor=default;" edge="1" parent="1" source="0s5SCzG6MqVW5vl6Giam-10" target="0s5SCzG6MqVW5vl6Giam-12">
          <mxGeometry relative="1" as="geometry" />
        </mxCell>
        <mxCell id="0s5SCzG6MqVW5vl6Giam-10" value="introduce el segundo número:" style="whiteSpace=wrap;html=1;" vertex="1" parent="1">
          <mxGeometry x="340" y="350" width="120" height="60" as="geometry" />
        </mxCell>
        <mxCell id="0s5SCzG6MqVW5vl6Giam-17" style="edgeStyle=orthogonalEdgeStyle;rounded=0;orthogonalLoop=1;jettySize=auto;html=1;entryX=0.5;entryY=0;entryDx=0;entryDy=0;fontFamily=Helvetica;fontSize=12;fontColor=default;" edge="1" parent="1" source="0s5SCzG6MqVW5vl6Giam-12" target="0s5SCzG6MqVW5vl6Giam-16">
          <mxGeometry relative="1" as="geometry" />
        </mxCell>
        <mxCell id="0s5SCzG6MqVW5vl6Giam-12" value="&lt;div style=&quot;font-family: Consolas, &amp;quot;Courier New&amp;quot;, monospace; font-size: 14px; line-height: 19px;&quot;&gt;num2&lt;/div&gt;" style="shape=document;whiteSpace=wrap;html=1;boundedLbl=1;" vertex="1" parent="1">
          <mxGeometry x="350" y="435" width="100" height="50" as="geometry" />
        </mxCell>
        <mxCell id="0s5SCzG6MqVW5vl6Giam-19" style="edgeStyle=orthogonalEdgeStyle;rounded=0;orthogonalLoop=1;jettySize=auto;html=1;fontFamily=Helvetica;fontSize=12;fontColor=default;" edge="1" parent="1" source="0s5SCzG6MqVW5vl6Giam-16" target="0s5SCzG6MqVW5vl6Giam-18">
          <mxGeometry relative="1" as="geometry" />
        </mxCell>
        <mxCell id="0s5SCzG6MqVW5vl6Giam-16" value="&lt;div&gt;escoje&lt;/div&gt;&lt;div&gt;SUMAR&lt;/div&gt;&lt;div&gt;RESTAR&lt;/div&gt;&lt;div&gt;&lt;span style=&quot;background-color: initial;&quot;&gt;MULTIPLICAR&lt;/span&gt;&lt;/div&gt;&lt;div&gt;DIVIDIR&lt;/div&gt;" style="whiteSpace=wrap;html=1;" vertex="1" parent="1">
          <mxGeometry x="350" y="510" width="100" height="80" as="geometry" />
        </mxCell>
        <mxCell id="0s5SCzG6MqVW5vl6Giam-21" value="" style="edgeStyle=orthogonalEdgeStyle;rounded=0;orthogonalLoop=1;jettySize=auto;html=1;fontFamily=Helvetica;fontSize=12;fontColor=default;" edge="1" parent="1" source="0s5SCzG6MqVW5vl6Giam-18" target="0s5SCzG6MqVW5vl6Giam-20">
          <mxGeometry relative="1" as="geometry" />
        </mxCell>
        <mxCell id="0s5SCzG6MqVW5vl6Giam-18" value="&lt;div style=&quot;font-family: Consolas, &amp;quot;Courier New&amp;quot;, monospace; font-size: 14px; line-height: 19px;&quot;&gt;op&lt;/div&gt;" style="shape=document;whiteSpace=wrap;html=1;boundedLbl=1;" vertex="1" parent="1">
          <mxGeometry x="350" y="620" width="100" height="50" as="geometry" />
        </mxCell>
        <mxCell id="0s5SCzG6MqVW5vl6Giam-23" value="" style="edgeStyle=orthogonalEdgeStyle;rounded=0;orthogonalLoop=1;jettySize=auto;html=1;fontFamily=Helvetica;fontSize=12;fontColor=default;" edge="1" parent="1" source="0s5SCzG6MqVW5vl6Giam-20" target="0s5SCzG6MqVW5vl6Giam-22">
          <mxGeometry relative="1" as="geometry" />
        </mxCell>
        <mxCell id="0s5SCzG6MqVW5vl6Giam-33" style="edgeStyle=orthogonalEdgeStyle;rounded=0;orthogonalLoop=1;jettySize=auto;html=1;entryX=0.5;entryY=0;entryDx=0;entryDy=0;fontFamily=Helvetica;fontSize=12;fontColor=default;" edge="1" parent="1" source="0s5SCzG6MqVW5vl6Giam-20" target="0s5SCzG6MqVW5vl6Giam-32">
          <mxGeometry relative="1" as="geometry" />
        </mxCell>
        <mxCell id="0s5SCzG6MqVW5vl6Giam-43" style="edgeStyle=orthogonalEdgeStyle;rounded=0;orthogonalLoop=1;jettySize=auto;html=1;entryX=0.5;entryY=0;entryDx=0;entryDy=0;fontFamily=Helvetica;fontSize=12;fontColor=default;" edge="1" parent="1" source="0s5SCzG6MqVW5vl6Giam-20" target="0s5SCzG6MqVW5vl6Giam-39">
          <mxGeometry relative="1" as="geometry" />
        </mxCell>
        <mxCell id="0s5SCzG6MqVW5vl6Giam-49" style="edgeStyle=orthogonalEdgeStyle;rounded=0;orthogonalLoop=1;jettySize=auto;html=1;entryX=0.5;entryY=0;entryDx=0;entryDy=0;fontFamily=Helvetica;fontSize=12;fontColor=default;" edge="1" parent="1" source="0s5SCzG6MqVW5vl6Giam-20" target="0s5SCzG6MqVW5vl6Giam-45">
          <mxGeometry relative="1" as="geometry" />
        </mxCell>
        <mxCell id="0s5SCzG6MqVW5vl6Giam-20" value="op" style="rhombus;whiteSpace=wrap;html=1;" vertex="1" parent="1">
          <mxGeometry x="360" y="690" width="80" height="40" as="geometry" />
        </mxCell>
        <mxCell id="0s5SCzG6MqVW5vl6Giam-27" style="edgeStyle=orthogonalEdgeStyle;rounded=0;orthogonalLoop=1;jettySize=auto;html=1;fontFamily=Helvetica;fontSize=12;fontColor=default;" edge="1" parent="1" source="0s5SCzG6MqVW5vl6Giam-22" target="0s5SCzG6MqVW5vl6Giam-26">
          <mxGeometry relative="1" as="geometry" />
        </mxCell>
        <mxCell id="0s5SCzG6MqVW5vl6Giam-22" value="+" style="whiteSpace=wrap;html=1;" vertex="1" parent="1">
          <mxGeometry x="90" y="740" width="25" height="20" as="geometry" />
        </mxCell>
        <mxCell id="0s5SCzG6MqVW5vl6Giam-31" style="edgeStyle=orthogonalEdgeStyle;rounded=0;orthogonalLoop=1;jettySize=auto;html=1;fontFamily=Helvetica;fontSize=12;fontColor=default;" edge="1" parent="1" source="0s5SCzG6MqVW5vl6Giam-26" target="0s5SCzG6MqVW5vl6Giam-30">
          <mxGeometry relative="1" as="geometry" />
        </mxCell>
        <mxCell id="0s5SCzG6MqVW5vl6Giam-26" value="res=num1+num2" style="whiteSpace=wrap;html=1;" vertex="1" parent="1">
          <mxGeometry x="42.5" y="790" width="120" height="60" as="geometry" />
        </mxCell>
        <mxCell id="0s5SCzG6MqVW5vl6Giam-59" style="edgeStyle=orthogonalEdgeStyle;rounded=0;orthogonalLoop=1;jettySize=auto;html=1;entryX=0.5;entryY=0;entryDx=0;entryDy=0;fontFamily=Helvetica;fontSize=12;fontColor=default;" edge="1" parent="1" source="0s5SCzG6MqVW5vl6Giam-30" target="0s5SCzG6MqVW5vl6Giam-54">
          <mxGeometry relative="1" as="geometry">
            <Array as="points">
              <mxPoint x="103" y="950" />
              <mxPoint x="410" y="950" />
            </Array>
          </mxGeometry>
        </mxCell>
        <mxCell id="0s5SCzG6MqVW5vl6Giam-30" value="El resultado es %f&quot;,res" style="whiteSpace=wrap;html=1;" vertex="1" parent="1">
          <mxGeometry x="42.5" y="880" width="120" height="60" as="geometry" />
        </mxCell>
        <mxCell id="0s5SCzG6MqVW5vl6Giam-37" style="edgeStyle=orthogonalEdgeStyle;rounded=0;orthogonalLoop=1;jettySize=auto;html=1;fontFamily=Helvetica;fontSize=12;fontColor=default;" edge="1" parent="1" source="0s5SCzG6MqVW5vl6Giam-32" target="0s5SCzG6MqVW5vl6Giam-35">
          <mxGeometry relative="1" as="geometry" />
        </mxCell>
        <mxCell id="0s5SCzG6MqVW5vl6Giam-32" value="-" style="whiteSpace=wrap;html=1;" vertex="1" parent="1">
          <mxGeometry x="257.5" y="740" width="25" height="20" as="geometry" />
        </mxCell>
        <mxCell id="0s5SCzG6MqVW5vl6Giam-34" style="edgeStyle=orthogonalEdgeStyle;rounded=0;orthogonalLoop=1;jettySize=auto;html=1;fontFamily=Helvetica;fontSize=12;fontColor=default;" edge="1" parent="1" source="0s5SCzG6MqVW5vl6Giam-35" target="0s5SCzG6MqVW5vl6Giam-36">
          <mxGeometry relative="1" as="geometry" />
        </mxCell>
        <mxCell id="0s5SCzG6MqVW5vl6Giam-35" value="res=num1-num2" style="whiteSpace=wrap;html=1;" vertex="1" parent="1">
          <mxGeometry x="210" y="790" width="120" height="60" as="geometry" />
        </mxCell>
        <mxCell id="0s5SCzG6MqVW5vl6Giam-58" style="edgeStyle=orthogonalEdgeStyle;rounded=0;orthogonalLoop=1;jettySize=auto;html=1;entryX=0.5;entryY=0;entryDx=0;entryDy=0;fontFamily=Helvetica;fontSize=12;fontColor=default;" edge="1" parent="1" source="0s5SCzG6MqVW5vl6Giam-36" target="0s5SCzG6MqVW5vl6Giam-54">
          <mxGeometry relative="1" as="geometry">
            <Array as="points">
              <mxPoint x="270" y="950" />
              <mxPoint x="410" y="950" />
            </Array>
          </mxGeometry>
        </mxCell>
        <mxCell id="0s5SCzG6MqVW5vl6Giam-36" value="El resultado es %f&quot;,res" style="whiteSpace=wrap;html=1;" vertex="1" parent="1">
          <mxGeometry x="210" y="880" width="120" height="60" as="geometry" />
        </mxCell>
        <mxCell id="0s5SCzG6MqVW5vl6Giam-38" style="edgeStyle=orthogonalEdgeStyle;rounded=0;orthogonalLoop=1;jettySize=auto;html=1;fontFamily=Helvetica;fontSize=12;fontColor=default;" edge="1" parent="1" source="0s5SCzG6MqVW5vl6Giam-39" target="0s5SCzG6MqVW5vl6Giam-41">
          <mxGeometry relative="1" as="geometry" />
        </mxCell>
        <mxCell id="0s5SCzG6MqVW5vl6Giam-39" value="*" style="whiteSpace=wrap;html=1;" vertex="1" parent="1">
          <mxGeometry x="527.5" y="740" width="25" height="20" as="geometry" />
        </mxCell>
        <mxCell id="0s5SCzG6MqVW5vl6Giam-40" style="edgeStyle=orthogonalEdgeStyle;rounded=0;orthogonalLoop=1;jettySize=auto;html=1;fontFamily=Helvetica;fontSize=12;fontColor=default;" edge="1" parent="1" source="0s5SCzG6MqVW5vl6Giam-41" target="0s5SCzG6MqVW5vl6Giam-42">
          <mxGeometry relative="1" as="geometry" />
        </mxCell>
        <mxCell id="0s5SCzG6MqVW5vl6Giam-41" value="res=num1-num2" style="whiteSpace=wrap;html=1;" vertex="1" parent="1">
          <mxGeometry x="480" y="790" width="120" height="60" as="geometry" />
        </mxCell>
        <mxCell id="0s5SCzG6MqVW5vl6Giam-56" style="edgeStyle=orthogonalEdgeStyle;rounded=0;orthogonalLoop=1;jettySize=auto;html=1;entryX=0.5;entryY=0;entryDx=0;entryDy=0;fontFamily=Helvetica;fontSize=12;fontColor=default;" edge="1" parent="1" source="0s5SCzG6MqVW5vl6Giam-42" target="0s5SCzG6MqVW5vl6Giam-54">
          <mxGeometry relative="1" as="geometry">
            <Array as="points">
              <mxPoint x="540" y="950" />
              <mxPoint x="410" y="950" />
            </Array>
          </mxGeometry>
        </mxCell>
        <mxCell id="0s5SCzG6MqVW5vl6Giam-42" value="El resultado es %f&quot;,res" style="whiteSpace=wrap;html=1;" vertex="1" parent="1">
          <mxGeometry x="480" y="880" width="120" height="60" as="geometry" />
        </mxCell>
        <mxCell id="0s5SCzG6MqVW5vl6Giam-44" style="edgeStyle=orthogonalEdgeStyle;rounded=0;orthogonalLoop=1;jettySize=auto;html=1;fontFamily=Helvetica;fontSize=12;fontColor=default;" edge="1" parent="1" source="0s5SCzG6MqVW5vl6Giam-45" target="0s5SCzG6MqVW5vl6Giam-47">
          <mxGeometry relative="1" as="geometry" />
        </mxCell>
        <mxCell id="0s5SCzG6MqVW5vl6Giam-45" value="/" style="whiteSpace=wrap;html=1;" vertex="1" parent="1">
          <mxGeometry x="687.5" y="730" width="25" height="20" as="geometry" />
        </mxCell>
        <mxCell id="0s5SCzG6MqVW5vl6Giam-46" style="edgeStyle=orthogonalEdgeStyle;rounded=0;orthogonalLoop=1;jettySize=auto;html=1;fontFamily=Helvetica;fontSize=12;fontColor=default;" edge="1" parent="1" source="0s5SCzG6MqVW5vl6Giam-47" target="0s5SCzG6MqVW5vl6Giam-48">
          <mxGeometry relative="1" as="geometry" />
        </mxCell>
        <mxCell id="0s5SCzG6MqVW5vl6Giam-47" value="res=num1-num2" style="whiteSpace=wrap;html=1;" vertex="1" parent="1">
          <mxGeometry x="640" y="780" width="120" height="60" as="geometry" />
        </mxCell>
        <mxCell id="0s5SCzG6MqVW5vl6Giam-57" style="edgeStyle=orthogonalEdgeStyle;rounded=0;orthogonalLoop=1;jettySize=auto;html=1;entryX=0.5;entryY=0;entryDx=0;entryDy=0;fontFamily=Helvetica;fontSize=12;fontColor=default;" edge="1" parent="1" source="0s5SCzG6MqVW5vl6Giam-48" target="0s5SCzG6MqVW5vl6Giam-54">
          <mxGeometry relative="1" as="geometry">
            <Array as="points">
              <mxPoint x="700" y="950" />
              <mxPoint x="410" y="950" />
            </Array>
          </mxGeometry>
        </mxCell>
        <mxCell id="0s5SCzG6MqVW5vl6Giam-48" value="El resultado es %f&quot;,res" style="whiteSpace=wrap;html=1;" vertex="1" parent="1">
          <mxGeometry x="640" y="870" width="120" height="60" as="geometry" />
        </mxCell>
        <mxCell id="0s5SCzG6MqVW5vl6Giam-54" value="Fin" style="ellipse;whiteSpace=wrap;html=1;strokeColor=default;fontFamily=Helvetica;fontSize=12;fontColor=default;fillColor=default;" vertex="1" parent="1">
          <mxGeometry x="350" y="980" width="120" height="80" as="geometry" />
        </mxCell>
      </root>
    </mxGraphModel>
  </diagram>
</mxfile>
